<svg version="1" xmlns="http://www.w3.org/2000/svg" width="1066.667" height="1066.667" viewBox="0 0 800.000000 800.000000"><path d="M467.4 49.6C445.6 57 432 77.5 434.2 99.8c.4 4.3 1.6 10 2.8 12.7 1.1 2.6 1.9 4.9 1.8 5-.3.2-10.4 5.6-23.8 12.8-4.7 2.4-14.6 7.6-22 11.5-36.9 19-56.1 29.2-57.6 30.3-.6.5-3-1.5-6.3-5.1-2.8-3.3-7.1-7.3-9.5-9-18.4-12.6-44.1-10.5-60.4 5-4.8 4.5-10.8 13.4-11.8 17.4-.3 1.4-1 2.8-1.4 3.1-.4.2-19.3-4.1-42.1-9.6s-42.3-10.2-43.4-10.5c-2.4-.5-24.4-5.7-37-8.9l-9-2.2-.1-8.4c-.3-18-9.2-33.2-24.6-42.3-4.9-2.9-5.1-2.9-14.3-4.9-27.3-6-54.5 14.2-57.1 42.6-2.4 26.6 18 50.5 44.6 52.3 2.5.2 5.3.3 6.2.3 1.1.1 1.9 1.2 2.2 3.3.5 2.8 2.8 17.4 4.1 25.8.3 1.4 1.2 7.2 2 13 .9 5.8 1.8 11.4 2 12.5.1 1.1.6 4.2 1 7 .4 2.7.9 5.9 1.1 7 .2 1.1.7 4 1 6.5.3 2.5.8 5.8 1.1 7.5.3 1.6.7 3.9.8 5 .2 1.1.6 3.3.9 5 .2 1.6.8 5 1.1 7.5.4 2.4.8 4.7 1 5 .2.3-2.7 2-6.4 3.8-19.5 9.4-30.2 30.2-26.6 52.2 2 12.9 13.4 28 25.3 33.6 3.3 1.6 6.1 3.3 6.1 3.8.1.5-5.6 23.4-12.5 51-7 27.5-13.6 54.1-14.8 59.1l-2.2 9-9 .6c-10.8.7-18.1 3-25.5 8-25 16.9-28.9 50.5-8.5 72.7 17.6 19.2 47.9 20.5 67.1 3 9.8-8.9 15.3-20.3 16-33.2 1-19-9.1-36.5-26-45.1-4.1-2.1-7.5-4.1-7.5-4.4 0-.2 4.5-18.5 10.1-40.5 5.5-22.1 10.2-40.8 10.4-41.6.2-.8 2.2-9.2 4.6-18.5 3.9-16 5.8-20.3 8.2-18.8 1.9 1.1 12.6.5 18.4-1.2 10.5-3 19.1-9.1 26.6-18.6l2.4-3.1 29.4 13.2c16.2 7.3 36.4 16.4 44.9 20.2 8.5 3.9 21.4 9.6 28.5 12.8 7.2 3.2 15.6 7 18.7 8.4 3.1 1.4 6.8 3 8.3 3.6 2.2.8 2.5 1.4 1.9 4.2-.3 1.8-.6 6.5-.6 10.3 0 15.6 8.1 30.1 21.7 39.2 3 2 5.5 3.6 5.5 3.7 0 .1-3 8.7-6.6 19.1-3.6 10.5-8.9 25.5-11.6 33.5-2.8 8-5.5 15.6-6.1 17-.5 1.4-1.1 3.2-1.3 4-.2.8-1 3-1.8 5-.8 1.9-5.1 14.1-9.6 27s-9.5 27.1-11 31.5c-3.7 10.2-9.4 26.5-11.7 33.3-1.3 3.9-2.2 5.1-3.3 4.6-.8-.3-5.1-.8-9.5-1.1-14.6-1-26 3.3-36.6 13.7-10.4 10.1-14.8 20.9-14.5 35.2.5 19.9 11.9 36.2 30.7 43.9 6.8 2.8 23 3.6 30 1.5 8.2-2.5 15.2-6.7 21.4-13 14.7-14.7 18-35.8 8.8-55.2-2.8-6-13.5-17.7-17-18.8-1.3-.4-2.3-1.2-2.3-1.7s-.7-.9-1.5-.9c-2 0-2-.4 1.9-11.1 1.9-5.2 9.6-27 17.1-48.4 16.3-46.5 20.1-57.4 22.5-64 1-2.8 3.7-10.4 6-17s5.4-15.6 7-20c1.5-4.4 3.4-9.7 4.1-11.8 1.3-3.8 1.5-3.9 4.9-3.2 6.7 1.4 16.5 1.2 22.7-.5 4.6-1.3 6.5-1.4 7.2-.6.9 1.1 21.4 34.2 38.6 62.1 5 8.2 11.2 18.2 13.6 22.1 2.4 3.8 4.9 7.9 5.6 9 6.3 10.3 23.8 38.5 41.7 67.3l7.7 12.3-3.4 4.2c-7.7 9.4-11.5 19.4-11.8 30.5-.4 22.6 14.7 42.3 36.9 48.1 6.3 1.6 19.7 1 26.1-1.2 20-6.8 33.4-25.4 33.2-46-.1-14.8-8-30.5-19.1-38.1l-2.5-1.7 3.1-5.8c5.7-10.7 11.2-20.7 17.3-31.6 3.4-6 6.1-11.1 6.1-11.2 0-.2 3.1-5.9 6.8-12.6 8.4-15 12.2-22 17.5-31.8 2.2-4.1 4.1-7.6 4.2-7.8.1-.1 2.2.5 4.6 1.4 2.5.9 8.5 1.8 13.9 2 7.8.3 10.7-.1 16-1.9 21.4-7.2 35.1-27.1 33.6-48.7-.5-7.2-1.3-10.3-4.4-17.3-2.2-5-2.3-6-1.1-7.1.8-.8 10.6-8.6 21.9-17.5 11.3-8.9 21.2-16.8 22.1-17.5 1.7-1.4 27.5-21.6 32.9-25.8 1.9-1.5 6-4.7 9.1-7.2l5.6-4.5 3.2 2.8c9.6 8.6 24.1 12.8 37.6 10.9 11.4-1.6 18.7-5.2 26.9-13.3 10.3-10 14.9-21.3 14.5-35.5-.4-17.1-9.1-31.8-23.7-40.3-7.8-4.5-13.2-6-23.1-6.3-37.6-1-61.7 39.7-42.6 72.2l2.4 4.1-2.7 2.5c-1.5 1.3-5.6 4.7-9.2 7.5-3.6 2.8-21.8 17.2-40.5 32-18.7 14.7-35.5 27.9-37.3 29.1l-3.2 2.4-5-4.5c-4.5-4.1-12.4-8.6-17.8-10.2-6.6-2-17.3-2.2-24.9-.5-13 2.9-26.3 13.9-32.3 26.5-1.8 3.8-3.3 7.1-3.4 7.2-.1.1-7.1-1.6-15.6-3.8-8.5-2.3-16.2-4.2-17-4.4-.8-.2-7.8-2-15.5-4s-20.1-5.2-27.5-7.1c-7.4-2-15.7-4.2-18.5-4.9-2.7-.8-6.1-1.7-7.5-1.9-1.4-.3-9.5-2.4-18-4.6-8.5-2.3-16.3-4.3-17.2-4.6-1-.2-2.6-.6-3.5-.9-1-.2-7.5-1.9-14.4-3.6l-12.6-3.3.9-4c1.3-5.3.4-19-1.5-24.3l-1.6-4.1 3.2-1.6c1.8-.9 3.9-2.1 4.7-2.6 3.6-2.3 47.1-26.9 56-31.6 1.9-1.1 3.7-2.2 4-2.5.3-.3 3.4-2.1 7-4.1 3.6-1.9 11.2-6.2 17-9.5 5.8-3.3 12.5-7.1 15-8.5 2.5-1.4 14.6-8.3 27-15.3 12.4-7.1 24.5-13.9 27-15.3 2.5-1.4 5.2-3 6.1-3.5 1.3-.8 2.4-.1 5.5 3.3 5.1 5.7 14.4 11.7 21.4 13.7 7.2 2.1 19 2.4 25.9.6 7.4-2 12.9-4.9 19.4-10.3 16.9-14 21.6-38 11.6-58.7-3-6.1-13.9-17-20.5-20.5-10-5.2-25.7-6.8-35.2-3.5l-4.1 1.4-1.5-3.2c-1.7-3.4-21.6-49.5-36.8-85-5-11.6-9.5-21.6-10-22.3-.6-.6-.7-1.2-.4-1.2.4 0 .2-.9-.4-2-.9-1.7-.1-2.9 5.8-8.7 11.6-11.5 16-22.9 14.9-38.6-.9-12.9-5.9-23.2-15.6-32-12.9-11.5-30.8-15.4-46.7-10.1zm-18.9 80.3c13.2 12.3 30.8 16.7 47 11.7 2.8-.9 5.3-1.6 5.6-1.6.4 0 1.9 2.8 3.4 6.2 1.4 3.5 3.3 7.6 4 9.3.7 1.6 3.4 7.9 6 14 2.6 6 5.5 12.8 6.5 15 1.1 2.2 3.9 8.7 6.3 14.5 2.5 5.8 8.8 20.5 14.1 32.8 5.3 12.2 9.6 22.6 9.6 23 0 .4-2.3 2.5-5 4.5-2.8 2.1-7.1 6.5-9.5 9.8-6.1 8.3-8.6 15.5-9.2 26.4-.5 7.8-.2 10 2 16.5l2.6 7.5-2.1 1.5c-1.8 1.3-45.8 26.5-58.8 33.6-2.5 1.4-6 3.4-7.9 4.5-4.9 2.9-54.5 31-61.6 34.9-3.3 1.8-7.6 4.3-9.5 5.5-1.9 1.2-6.2 3.7-9.5 5.4-3.3 1.8-8.2 4.6-11 6.2-7.2 4.3-7.6 4.4-8.8 2.4-2-3.6-8-9.5-13-12.8-7.6-5-15.9-7.8-24.4-8.1-4.1-.2-7.5-.5-7.7-.7-.4-.4-1.3-8.4-2.1-18.9-.3-3.6-.8-7.2-1-8-.2-.8-.7-4.9-1-9-.3-4.1-.8-8.6-1-10-.2-1.4-.7-5.9-1-10-.3-4.1-.8-8.6-1-10-.2-1.4-.6-5.9-1-10-.3-4.1-.8-8.2-1-9-.2-.8-.7-5.3-1-10-.4-4.7-.9-9.2-1-10.1-.2-.9-.6-5.2-1-9.5s-.8-8.8-1-10c-.2-1.1-.6-5.2-1-9-.3-3.8-.8-8.3-1.1-10.1-.4-3.1-.2-3.3 3.9-4.4 10.9-2.9 23.9-13.7 29-24.3 5.5-11.2 6.7-25.5 3.1-35.8-1.2-3.4-1.2-4.4-.2-5.4.7-.6 6.7-4 13.3-7.4 6.6-3.4 18.1-9.4 25.5-13.3 25.5-13.5 29.5-15.5 44.5-23.2 8.3-4.3 15.9-8.4 17-9.1 1.1-.8 2.4-1.4 2.8-1.4.5 0 3.8 2.6 7.2 5.9zm-329.7 30.5c2.8.8 5.2 1.2 5.2 1 0-.3.8 0 1.8.5.9.5 3.1 1.2 4.7 1.5 1.7.3 5 1 7.5 1.6 2.5.7 5.4 1.3 6.5 1.6 1.1.2 8.3 1.9 16 3.8 7.7 1.9 18.1 4.4 23 5.6 17.6 4.2 54.1 13.1 57.5 14l3.5.9-.2 6.1c-.3 13.3 4.4 24.7 14.2 34.5 9.1 9.1 21.1 14.5 32.2 14.5 2.3 0 4.4.3 4.6.7.3.5.8 4.2 1.1 8.3.4 4.1.9 8.8 1.1 10.5.2 1.6.6 6.4 1 10.5.8 8.3.9 9.1 2.5 23.5.6 5.5 1.3 12.5 1.5 15.5.6 6.5 1.5 14.5 2 18 .2 1.4.6 6.1 1 10.5.3 4.4.7 9.1 1 10.5.2 1.4.7 5.5 1 9.2.3 3.7.8 7.7 1 9 .2 1.3.6 5.9 1 10.3s.9 8.8 1 9.7c.3 1.3-.6 2-3.4 2.8-4.4 1.2-14.3 7.4-18.5 11.6-3.3 3.4-8.3 10.4-9.4 13.3-.8 2.2 4.8 4.5-51.2-20.6-13.5-6.1-33-14.9-43.5-19.6-10.4-4.6-22.4-10-26.5-11.9-4.2-2-8.5-3.8-9.7-4.2-2.1-.7-2.1-.8-.5-4.4 2.4-5.6 2.3-24.1-.2-30.7-7.9-20.2-24.9-32.3-45.6-32.3-8.9 0-7.9 1.9-11.4-21.7-3.1-21.3-3.2-21.7-6.2-40.5-1.3-8.5-2.7-17.3-3-19.5-.4-2.2-.8-4.9-1-6-.8-3.8-2.4-15-2.4-16.8 0-.9.7-1.7 1.5-1.7.9 0 4.7-1.6 8.6-3.5 8.6-4.4 16.5-12.3 21.1-21 1.8-3.6 3.5-6.5 3.8-6.5.3 0 2.9.7 5.8 1.4zM382 463.9c6.3 1.6 19.5 5 29.3 7.6 9.9 2.6 18.8 4.8 19.9 5 1.2.3 3.5.9 5.2 1.4 1.7.6 4.2 1.3 5.6 1.5 1.4.3 12.9 3.3 25.5 6.6 12.7 3.3 33.1 8.6 45.4 11.8l22.4 5.8.3 6.9c.4 8.5.7 9.9 2.4 14.9 2.7 8.1 9.7 17.9 16.1 22.5l3.7 2.8-6 10.9c-3.3 6-7.4 13.6-9.2 16.9-1.8 3.3-4.2 7.6-5.3 9.5-3.1 5.6-7.8 14-11.4 20.8-4.5 8.3-6 11.1-15.3 28-6 10.9-8.3 14.2-9.5 13.9-.9-.3-3.6-1.2-6.1-1.9-5.7-1.8-16-2.2-22.5-.8-6.4 1.3-6.3 1.3-11 3.5-2.2 1-4.8 2.2-5.7 2.6-1.4.7-2.4-.4-5.2-4.9-3.2-5.4-7.4-12.2-19.6-31.9-49.5-79.9-82-132.7-82.5-134.2-.4-1.4.3-2.5 3-4.1 3.4-2.1 12.5-11.7 12.5-13.3 0-2 3.4-5.7 4.9-5.3.9.3 6.8 1.8 13.1 3.5z"/></svg>